# xmcd
#
# Track frame offsets: 
#        150
#        16929
#        35309
#        55558
#        76759
#        96916
#        117807
#        134706
#        152647
#        171154
#        189046
#
# Disc length: 2783 seconds
#
# Revision: 0
# Processed by: cddbd v1.5.2PL0 Copyright (c) Steve Scherf et al.
# Submitted via: ExactAudioCopy v0.95a5
#
DISCID=7a0add0b
DTITLE=Curtis Stigers - Curtis Stigers
DYEAR=1991
DGENRE=Pop
TTITLE0=Sleeping With The Lights On
TTITLE1=I Wonder Why
TTITLE2=You're All That Matters To Me
TTITLE3=The Man You're Gonna Fall In Love With
TTITLE4=People Like Us
TTITLE5=Never Saw A Miracle
TTITLE6=I Guess It Wasn't Mine
TTITLE7=Nobody Loves You Like I Do
TTITLE8=I Keep Telling Myself
TTITLE9=Count My Blessings
TTITLE10=The Last Time I Said Goodbye
EXTD=
EXTT0=
EXTT1=
EXTT2=
EXTT3=
EXTT4=
EXTT5=
EXTT6=
EXTT7=
EXTT8=
EXTT9=
EXTT10=
PLAYORDER=
